G04 Layer: BottomSilkscreenLayer*
G04 EasyEDA v6.5.50, 2025-08-07 10:35:29*
G04 74255e6287ff46ccaf4258973ae4467f,a9d25c5918c043fd81c0204b4de1b791,10*
G04 Gerber Generator version 0.2*
G04 Scale: 100 percent, Rotated: No, Reflected: No *
G04 Dimensions in millimeters *
G04 leading zeros omitted , absolute positions ,4 integer and 5 decimal *
%FSLAX45Y45*%
%MOMM*%

%ADD10C,0.1524*%
%ADD11C,0.2540*%
%ADD12C,0.0120*%

%LPD*%
D10*
X1663697Y7938503D02*
G01*
X1663697Y7829537D01*
X1663697Y7938503D02*
G01*
X1616961Y7938503D01*
X1601467Y7933423D01*
X1596133Y7928089D01*
X1591053Y7917675D01*
X1591053Y7902181D01*
X1596133Y7891767D01*
X1601467Y7886687D01*
X1616961Y7881353D01*
X1663697Y7881353D01*
X1546349Y7938503D02*
G01*
X1489199Y7938503D01*
X1520187Y7896847D01*
X1504693Y7896847D01*
X1494279Y7891767D01*
X1489199Y7886687D01*
X1483865Y7870939D01*
X1483865Y7860525D01*
X1489199Y7845031D01*
X1499613Y7834617D01*
X1515107Y7829537D01*
X1530601Y7829537D01*
X1546349Y7834617D01*
X1551429Y7839697D01*
X1556763Y7850111D01*
D11*
X1790697Y6527787D02*
G01*
X1790697Y6565887D01*
X1536697Y7073887D02*
G01*
X1536697Y6997687D01*
X1790697Y7073887D02*
G01*
X1790697Y6997687D01*
X1790697Y6819887D02*
G01*
X1790697Y6743687D01*
X1536697Y6565887D02*
G01*
X1536697Y6527787D01*
X1536697Y6527787D02*
G01*
X1790697Y6527787D01*
X1536697Y6819887D02*
G01*
X1536697Y6743687D01*
X1536697Y7327887D02*
G01*
X1536697Y7251687D01*
X1790697Y7327887D02*
G01*
X1790697Y7251687D01*
X1790697Y7581887D02*
G01*
X1790697Y7505687D01*
X1536697Y7581887D02*
G01*
X1536697Y7505687D01*
X1790697Y7759687D02*
G01*
X1790697Y7797787D01*
X1536697Y7797787D01*
X1536697Y7759687D01*
M02*
