G04 Layer: TopPasteMaskLayer*
G04 EasyEDA v6.5.51, 2025-10-03 12:57:00*
G04 1774a4c295a541ecbbde68075a457707,a9d25c5918c043fd81c0204b4de1b791,10*
G04 Gerber Generator version 0.2*
G04 Scale: 100 percent, Rotated: No, Reflected: No *
G04 Dimensions in millimeters *
G04 leading zeros omitted , absolute positions ,4 integer and 5 decimal *
%FSLAX45Y45*%
%MOMM*%

%ADD10R,1.3000X1.3000*%
%ADD11R,0.0126X1.3000*%

%LPD*%
G36*
X1688693Y6669582D02*
G01*
X1681683Y6664604D01*
X1681683Y6619595D01*
X1688693Y6614566D01*
X1736699Y6614566D01*
X1741678Y6619595D01*
X1741678Y6664604D01*
X1736699Y6669582D01*
G37*
G36*
X1590700Y6669582D02*
G01*
X1585722Y6664604D01*
X1585722Y6619595D01*
X1590700Y6614566D01*
X1638706Y6614566D01*
X1645716Y6619595D01*
X1645716Y6664604D01*
X1638706Y6669582D01*
G37*
G36*
X1681175Y7354874D02*
G01*
X1677212Y7350861D01*
X1677212Y7304887D01*
X1681175Y7300874D01*
X1731264Y7300874D01*
X1735277Y7304887D01*
X1735277Y7350861D01*
X1731264Y7354874D01*
G37*
G36*
X1596136Y7354874D02*
G01*
X1592122Y7350861D01*
X1592122Y7304887D01*
X1596136Y7300874D01*
X1646174Y7300874D01*
X1650187Y7304887D01*
X1650187Y7350861D01*
X1646174Y7354874D01*
G37*
G36*
X1596136Y7227874D02*
G01*
X1592122Y7223861D01*
X1592122Y7177887D01*
X1596136Y7173874D01*
X1646174Y7173874D01*
X1650187Y7177887D01*
X1650187Y7223861D01*
X1646174Y7227874D01*
G37*
G36*
X1681175Y7227874D02*
G01*
X1677212Y7223861D01*
X1677212Y7177887D01*
X1681175Y7173874D01*
X1731264Y7173874D01*
X1735277Y7177887D01*
X1735277Y7223861D01*
X1731264Y7227874D01*
G37*
D10*
G01*
X1763699Y7021474D03*
G01*
X1763699Y6821474D03*
G01*
X1563700Y6821500D03*
G01*
X1563700Y7021474D03*
M02*
