G04 Layer: TopSilkscreenLayer*
G04 EasyEDA v6.5.50, 2025-08-07 10:35:29*
G04 74255e6287ff46ccaf4258973ae4467f,a9d25c5918c043fd81c0204b4de1b791,10*
G04 Gerber Generator version 0.2*
G04 Scale: 100 percent, Rotated: No, Reflected: No *
G04 Dimensions in millimeters *
G04 leading zeros omitted , absolute positions ,4 integer and 5 decimal *
%FSLAX45Y45*%
%MOMM*%

%ADD10C,0.1524*%
%ADD11C,0.1520*%
%ADD12C,0.2540*%
%ADD13C,0.0187*%

%LPD*%
D10*
X1763516Y6374892D02*
G01*
X1768850Y6364478D01*
X1779264Y6354063D01*
X1789424Y6348984D01*
X1810252Y6348984D01*
X1820666Y6354063D01*
X1831080Y6364478D01*
X1836414Y6374892D01*
X1841494Y6390639D01*
X1841494Y6416547D01*
X1836414Y6432042D01*
X1831080Y6442455D01*
X1820666Y6452870D01*
X1810252Y6457950D01*
X1789424Y6457950D01*
X1779264Y6452870D01*
X1768850Y6442455D01*
X1763516Y6432042D01*
X1718812Y6348984D02*
G01*
X1661662Y6348984D01*
X1692904Y6390639D01*
X1677410Y6390639D01*
X1666996Y6395720D01*
X1661662Y6400800D01*
X1656582Y6416547D01*
X1656582Y6426962D01*
X1661662Y6442455D01*
X1672076Y6452870D01*
X1687824Y6457950D01*
X1703318Y6457950D01*
X1718812Y6452870D01*
X1724146Y6447789D01*
X1729226Y6437376D01*
X1591050Y6348984D02*
G01*
X1606544Y6354063D01*
X1616958Y6369812D01*
X1622292Y6395720D01*
X1622292Y6411213D01*
X1616958Y6437376D01*
X1606544Y6452870D01*
X1591050Y6457950D01*
X1580636Y6457950D01*
X1565142Y6452870D01*
X1554728Y6437376D01*
X1549394Y6411213D01*
X1549394Y6395720D01*
X1554728Y6369812D01*
X1565142Y6354063D01*
X1580636Y6348984D01*
X1591050Y6348984D01*
X2006617Y7265413D02*
G01*
X2006617Y7187435D01*
X2011697Y7171941D01*
X2022111Y7161527D01*
X2037859Y7156447D01*
X2048273Y7156447D01*
X2063767Y7161527D01*
X2074181Y7171941D01*
X2079261Y7187435D01*
X2079261Y7265413D01*
X2118885Y7239505D02*
G01*
X2118885Y7244585D01*
X2123965Y7254999D01*
X2129299Y7260333D01*
X2139713Y7265413D01*
X2160287Y7265413D01*
X2170701Y7260333D01*
X2176035Y7254999D01*
X2181115Y7244585D01*
X2181115Y7234171D01*
X2176035Y7223757D01*
X2165621Y7208263D01*
X2113551Y7156447D01*
X2186449Y7156447D01*
X1930392Y7519410D02*
G01*
X1930392Y7410444D01*
X1930392Y7519410D02*
G01*
X1977128Y7519410D01*
X1992622Y7514330D01*
X1997956Y7508996D01*
X2003036Y7498582D01*
X2003036Y7488168D01*
X1997956Y7477754D01*
X1992622Y7472674D01*
X1977128Y7467594D01*
X1930392Y7467594D01*
X1966714Y7467594D02*
G01*
X2003036Y7410444D01*
X2047740Y7519410D02*
G01*
X2104890Y7519410D01*
X2073902Y7477754D01*
X2089396Y7477754D01*
X2099810Y7472674D01*
X2104890Y7467594D01*
X2110224Y7451846D01*
X2110224Y7441432D01*
X2104890Y7425938D01*
X2094476Y7415524D01*
X2078982Y7410444D01*
X2063488Y7410444D01*
X2047740Y7415524D01*
X2042660Y7420604D01*
X2037326Y7431018D01*
X2149594Y7493502D02*
G01*
X2149594Y7498582D01*
X2154928Y7508996D01*
X2160008Y7514330D01*
X2170422Y7519410D01*
X2191250Y7519410D01*
X2201664Y7514330D01*
X2206744Y7508996D01*
X2212078Y7498582D01*
X2212078Y7488168D01*
X2206744Y7477754D01*
X2196330Y7462260D01*
X2144514Y7410444D01*
X2217158Y7410444D01*
X1384294Y7009378D02*
G01*
X1384294Y7118344D01*
X1384294Y7009378D02*
G01*
X1337558Y7009378D01*
X1322064Y7014458D01*
X1316730Y7019792D01*
X1311650Y7030206D01*
X1311650Y7040620D01*
X1316730Y7051034D01*
X1322064Y7056114D01*
X1337558Y7061194D01*
X1384294Y7061194D01*
X1347972Y7061194D02*
G01*
X1311650Y7118344D01*
X1266946Y7009378D02*
G01*
X1209796Y7009378D01*
X1240784Y7051034D01*
X1225290Y7051034D01*
X1214876Y7056114D01*
X1209796Y7061194D01*
X1204462Y7076942D01*
X1204462Y7087356D01*
X1209796Y7102850D01*
X1220210Y7113264D01*
X1235704Y7118344D01*
X1251198Y7118344D01*
X1266946Y7113264D01*
X1272026Y7108184D01*
X1277360Y7097770D01*
X1118356Y7009378D02*
G01*
X1170172Y7082022D01*
X1092194Y7082022D01*
X1118356Y7009378D02*
G01*
X1118356Y7118344D01*
G36*
X1438706Y6786473D02*
G01*
X1438706Y6696506D01*
X1528673Y6696506D01*
G37*
X1562066Y6592227D02*
G01*
X1641076Y6592227D01*
X1641076Y6691947D02*
G01*
X1562066Y6691947D01*
X1546826Y6676707D02*
G01*
X1546826Y6607467D01*
X1765327Y6592227D02*
G01*
X1686318Y6592227D01*
X1686318Y6691947D02*
G01*
X1765327Y6691947D01*
X1780567Y6676707D02*
G01*
X1780567Y6607467D01*
D11*
X1438696Y6786486D02*
G01*
X1438696Y6696486D01*
X1528696Y6696486D01*
X1438696Y6786486D01*
D12*
X1468696Y6726486D02*
G01*
X1468625Y6786613D01*
X1468625Y7116559D01*
X1468696Y7116488D01*
X1858769Y7116559D01*
X1858769Y6726415D01*
X1468625Y6726415D01*
D10*
X1641076Y7278024D02*
G01*
X1569272Y7278024D01*
X1569272Y7377744D01*
X1641076Y7377744D01*
X1686318Y7278024D02*
G01*
X1758121Y7278024D01*
X1758121Y7377744D01*
X1686318Y7377744D01*
X1686318Y7250744D02*
G01*
X1758121Y7250744D01*
X1758121Y7151024D01*
X1686318Y7151024D01*
X1641076Y7250744D02*
G01*
X1569272Y7250744D01*
X1569272Y7151024D01*
X1641076Y7151024D01*
G75*
G01*
X1562067Y6691948D02*
G03*
X1546827Y6676708I0J-15240D01*
G75*
G01*
X1546827Y6607467D02*
G03*
X1562067Y6592227I15240J0D01*
G75*
G01*
X1765328Y6691948D02*
G02*
X1780568Y6676708I0J-15240D01*
G75*
G01*
X1780568Y6607467D02*
G02*
X1765328Y6592227I-15240J0D01*
M02*
